<?xml version="1.0" encoding="utf-8"?>
<!-- Generator: Adobe Illustrator 19.0.0, SVG Export Plug-In . SVG Version: 6.00 Build 0)  -->
<svg version="1.1" id="Camada_1" xmlns="http://www.w3.org/2000/svg" xmlns:xlink="http://www.w3.org/1999/xlink" x="0px" y="0px"
	 viewBox="50 331 711.7 132" style="enable-background:new 50 331 711.7 132;" xml:space="preserve">
<style type="text/css">
	.st0{fill:#FFFFFF;}
	.st1{fill:#21793D;}
	.st2{fill:#D58D34;}
	.st3{fill:#194490;}
	.st4{fill:none;stroke:#010002;stroke-width:0.5;stroke-linecap:round;stroke-linejoin:round;}
	.st5{fill:none;stroke:#000000;stroke-miterlimit:10;}
	.st6{fill:#4F74AA;}
	.st7{fill:#FF9A55;}
	.st8{fill:#3498DB;}
	.st9{fill:#F1C40F;}
	.st10{fill:#2ECC71;}
	.st11{fill:#E74C3C;}
	.st12{display:none;}
	.st13{display:inline;}
</style>
<g id="XMLID_115_">
	<path id="XMLID_113_" d="M1114.5-743.3l26.3-2.1l-1,93.7l-24.4,2.1L1114.5-743.3z"/>
	<path id="XMLID_110_" d="M1144.7-746.2l26.7-1.2l-1.4,20.5l-25.4,1.9L1144.7-746.2z M1144.8-716.8l26-2.1l-1.3,67.2l-24.7,2.1
		V-716.8z"/>
	<path id="XMLID_107_" d="M1186.4-652.6c2.7,0.9,5.4,1.7,8.2,2.3c2.8,0.6,5.6,0.9,8.6,0.9c1.2,0,2.5-0.1,3.7-0.2
		c1.2-0.2,2.4-0.5,3.4-1s1.8-1.2,2.4-2.1c0.6-0.9,0.9-2.1,0.9-3.5c0-1.5-0.4-2.7-1.1-3.7s-1.7-1.7-3-2.3s-2.7-1-4.4-1.2
		c-1.6-0.2-3.4-0.1-5.1-0.5c-3-0.6-9.7-3.6-9.7-3.6c-5.1-2.5-9.1-5.9-11.9-10.2s-4.2-9.5-4.2-15.7c0-3.2,0.6-6.5,1.8-9.8
		c1.2-3.4,3.1-6.5,5.6-9.3c2.6-2.8,5.8-5.1,9.8-6.9s8.7-2.7,14.2-2.7c2.8,0,5.2,0.2,7.3,0.6c2.1,0.4,4.1,0.9,5.9,1.5l2-12.2l18.6,8
		l-6.1,11.9c2.5,2.4,4.4,5.2,5.6,8.3c1.3,3.1,1.9,6.5,1.9,10.1c0,4.9-1,9.1-3,12.5c-2,3.5-4.9,6.5-8.8,9
		c7.6,4.3,11.4,10.7,11.4,19.3c0,4.1-0.9,7.8-2.7,11c-1.8,3.2-4.3,5.9-7.6,8.1c-3.3,2.2-7.3,3.8-11.9,4.9c-4.6,1.1-9.8,1.7-15.4,1.7
		c-6.8,0-12.5-0.6-17-1.7c-4.5-1.2-8.1-2.2-10.9-3.1L1186.4-652.6z M1208.8-685.3c2.6-0.5,4.6-1.6,5.9-3.3c1.3-1.6,1.8-3.5,1.4-5.5
		c-0.5-2-1.6-3.5-3.5-4.4s-4.1-1.1-6.7-0.6c-2.6,0.6-4.6,1.7-5.9,3.4c-1.3,1.6-1.8,3.4-1.4,5.4s1.5,3.5,3.4,4.5
		C1203.9-684.9,1206.2-684.7,1208.8-685.3z"/>
	<path id="XMLID_104_" d="M1280.6-658.7h-0.2c-2.1,2.9-4.8,5-8,6.2s-6.7,1.7-10.4,1.7c-3.1,0-6.1-0.6-8.8-1.7
		c-2.8-1.1-5.2-2.7-7.3-4.8c-2.1-2.1-3.8-4.6-5-7.6c-1.2-2.9-1.9-6.2-1.9-9.9c0-3.2,0.6-6.1,1.9-8.8c1.2-2.7,2.9-5,5.1-7
		c2.1-2,4.7-3.5,7.6-4.7c2.9-1.1,6.1-1.7,9.5-1.7c3.6,0,6.6,0.5,9,1.6c2.4,1,4.5,2.2,6.2,3.5v-3.5c0-3.6-1.2-5.9-3.5-7.1
		s-5.4-1.7-9.1-1.7c-3.4,0-6.6,0.3-9.5,1s-5.9,1.5-9,2.4l4.5-18.5c3.7-1.1,7.6-1.8,11.6-2.3c4-0.4,8.1-0.6,12.3-0.6
		c3.8,0,7.5,0.4,11.2,1.3c3.6,0.9,6.8,2.3,9.6,4.4c2.8,2,4.9,4.6,6.6,7.8c1.6,3.2,2.4,7.1,2.3,11.8l-1.3,44l-23.4,2L1280.6-658.7
		L1280.6-658.7z M1265.8-680.2c-2.6,0.4-4.8,1.3-6.5,2.7s-2.4,3-2.2,4.8c0.3,1.8,1.4,3.1,3.3,4s4.4,1.1,7.4,0.6s5.3-1.4,6.8-2.9
		s2.1-3.1,1.7-4.8c-0.2-1.5-1.2-2.7-3-3.8C1271.5-680.5,1269-680.8,1265.8-680.2z"/>
	<path id="XMLID_101_" d="M1349.1-721.4c4.7,0,8.9,1,12.8,3s7.3,4.7,10.1,8c2.9,3.3,5.1,7,6.7,11.2s2.4,8.5,2.4,12.8
		c0,5.8-1,11-3,15.5s-4.6,8.3-7.9,11.3c-3.3,3.1-7,5.4-11.3,7s-8.8,2.4-13.4,2.4c-3.6,0-6.9-0.6-10.1-1.9c-3.1-1.2-6.1-2.6-8.8-4v5
		h-18.4l-0.7-93.8l26.9-2.1l-1,30.3c2.4-1.3,4.7-2.4,7-3.4C1342.6-720.9,1345.5-721.4,1349.1-721.4z M1347-674.5
		c1.9-0.5,3.5-1.3,4.8-2.3s2.4-2.1,3.2-3.3c0.8-1.2,1.3-2.6,1.6-4c0.2-1.4,0.2-2.8-0.2-4.2c-0.4-1.4-1-2.6-2-3.7
		c-0.9-1-2.1-1.9-3.4-2.6c-1.4-0.7-2.9-1-4.5-1.2c-1.7-0.1-3.4,0.1-5.3,0.6s-3.5,1.3-4.8,2.3c-1.4,1-2.4,2.1-3.3,3.4
		c-0.8,1.2-1.3,2.6-1.6,4c-0.2,1.4-0.2,2.8,0.2,4.2c0.4,1.4,1,2.6,2,3.7c0.9,1,2.1,1.9,3.4,2.5c1.4,0.6,2.9,1,4.6,1.1
		C1343.3-673.8,1345.1-674,1347-674.5z"/>
	<path id="XMLID_98_" d="M1450.9-659.4c-4.7,3.4-9.6,5.9-14.5,7.4c-5,1.5-10.7,2.3-17.1,2.3c-5.3,0-10.1-0.9-14.5-2.7
		s-8.2-4.3-11.3-7.4c-3.2-3.1-5.7-6.7-7.4-10.9c-1.8-4.1-2.7-8.6-2.7-13.2c0-5.8,0.9-11,2.8-15.6s4.4-8.5,7.6-11.6
		c3.2-3.2,6.9-5.6,11.1-7.3c4.2-1.7,8.7-2.5,13.6-2.5c7.8,0,14.5,2,20.2,5.9c5.7,4,10,9.2,12.7,15.8l-34.8,26.2
		c0.9,0.5,2,0.8,3.4,0.9c1.4,0.2,2.7,0.2,3.8,0.2c3.6,0,6.6-0.6,9-1.9c2.4-1.3,4.7-2.8,6.7-4.6L1450.9-659.4z M1426-697.6
		c-1.1-1.3-2.3-2.2-3.5-2.7c-1.3-0.5-2.7-0.7-4.4-0.7c-1.6,0-3,0.3-4.2,1c-1.3,0.7-2.4,1.6-3.3,2.7s-1.6,2.4-2.2,3.8
		c-0.5,1.4-0.8,2.8-0.8,4.3c0,1.4,0.1,2.4,0.3,3c0.2,0.6,0.4,1.2,0.8,1.8L1426-697.6z"/>
	<path id="XMLID_96_" d="M1485.7-649.7c-1.1,0-2.3,0.1-3.7,0.1c-7.4,0-13.2-1.7-17.4-5.1c-4.2-3.4-6.2-8.9-6.2-16.5v-27.6l-6.4,0.1
		l0.7-20.1h5.5v-7.7l25.3-11.4v19.1l9.4-1.4l-1.3,21.4h-7.9v20.4c0,2.3,0.3,3.9,1,4.7s2.2,1.2,4.5,1.2c1,0,1.8,0,2.4-0.1
		s1.2-0.2,1.7-0.3l-4.1,23C1488-649.8,1486.8-649.7,1485.7-649.7z"/>
</g>
<g id="XMLID_116_">
	<path id="XMLID_94_" class="st0" d="M1114.5-582.3l26.3-2.1l-1,93.7l-24.4,2.1L1114.5-582.3z"/>
	<path id="XMLID_91_" class="st0" d="M1144.7-585.2l26.7-1.2l-1.4,20.5l-25.4,1.9L1144.7-585.2z M1144.8-555.8l26-2.1l-1.3,67.2
		l-24.7,2.1V-555.8z"/>
	<path id="XMLID_88_" class="st0" d="M1186.4-491.7c2.7,0.9,5.4,1.7,8.2,2.3c2.8,0.6,5.6,0.9,8.6,0.9c1.2,0,2.5-0.1,3.7-0.2
		c1.2-0.2,2.4-0.5,3.4-1s1.8-1.2,2.4-2.1c0.6-0.9,0.9-2.1,0.9-3.5c0-1.5-0.4-2.7-1.1-3.7s-1.7-1.7-3-2.3s-2.7-1-4.4-1.2
		c-1.6-0.2-3.4-0.1-5.1-0.5c-3-0.6-9.7-3.6-9.7-3.6c-5.1-2.5-9.1-5.9-11.9-10.2s-4.2-9.5-4.2-15.7c0-3.2,0.6-6.5,1.8-9.8
		c1.2-3.4,3.1-6.5,5.6-9.3c2.6-2.8,5.8-5.1,9.8-6.9c4-1.8,8.7-2.7,14.2-2.7c2.8,0,5.2,0.2,7.3,0.6c2.1,0.4,4.1,0.9,5.9,1.5l2-12.2
		l18.6,8l-6.1,11.9c2.5,2.4,4.4,5.2,5.6,8.3c1.3,3.1,1.9,6.5,1.9,10.1c0,4.9-1,9.1-3,12.5c-2,3.5-4.9,6.5-8.8,9
		c7.6,4.3,11.4,10.7,11.4,19.3c0,4.1-0.9,7.8-2.7,11c-1.8,3.2-4.3,5.9-7.6,8.1c-3.3,2.2-7.3,3.8-11.9,4.9c-4.6,1.1-9.8,1.7-15.4,1.7
		c-6.8,0-12.5-0.6-17-1.7c-4.5-1.2-8.1-2.2-10.9-3.1L1186.4-491.7z M1208.8-524.4c2.6-0.5,4.6-1.6,5.9-3.3c1.3-1.6,1.8-3.5,1.4-5.5
		c-0.5-2-1.6-3.5-3.5-4.4s-4.1-1.1-6.7-0.6c-2.6,0.6-4.6,1.7-5.9,3.4c-1.3,1.6-1.8,3.4-1.4,5.4s1.5,3.5,3.4,4.5
		C1203.9-523.9,1206.2-523.7,1208.8-524.4z"/>
	<path id="XMLID_85_" class="st0" d="M1280.6-497.7h-0.2c-2.1,2.9-4.8,5-8,6.2s-6.7,1.7-10.4,1.7c-3.1,0-6.1-0.6-8.8-1.7
		c-2.8-1.1-5.2-2.7-7.3-4.8c-2.1-2.1-3.8-4.6-5-7.6c-1.2-2.9-1.9-6.2-1.9-9.9c0-3.2,0.6-6.1,1.9-8.8c1.2-2.7,2.9-5,5.1-7
		c2.1-2,4.7-3.5,7.6-4.7c2.9-1.1,6.1-1.7,9.5-1.7c3.6,0,6.6,0.5,9,1.6c2.4,1,4.5,2.2,6.2,3.5v-3.5c0-3.6-1.2-5.9-3.5-7.1
		c-2.3-1.2-5.4-1.7-9.1-1.7c-3.4,0-6.6,0.3-9.5,1s-5.9,1.5-9,2.4l4.5-18.5c3.7-1.1,7.6-1.8,11.6-2.3c4-0.4,8.1-0.6,12.3-0.6
		c3.8,0,7.5,0.4,11.2,1.3c3.6,0.9,6.8,2.3,9.6,4.4c2.8,2,4.9,4.6,6.6,7.8c1.6,3.2,2.4,7.1,2.3,11.8l-1.3,44l-23.4,2L1280.6-497.7
		L1280.6-497.7z M1265.8-519.2c-2.6,0.4-4.8,1.3-6.5,2.7s-2.4,3-2.2,4.8c0.3,1.8,1.4,3.1,3.3,4s4.4,1.1,7.4,0.6s5.3-1.4,6.8-2.9
		s2.1-3.1,1.7-4.8c-0.2-1.5-1.2-2.7-3-3.8C1271.5-519.5,1269-519.8,1265.8-519.2z"/>
	<path id="XMLID_82_" class="st0" d="M1349.1-560.4c4.7,0,8.9,1,12.8,3s7.3,4.7,10.1,8c2.9,3.3,5.1,7,6.7,11.2s2.4,8.5,2.4,12.8
		c0,5.8-1,11-3,15.5s-4.6,8.3-7.9,11.3c-3.3,3.1-7,5.4-11.3,7s-8.8,2.4-13.4,2.4c-3.6,0-6.9-0.6-10.1-1.9c-3.1-1.2-6.1-2.6-8.8-4v5
		h-18.4l-0.7-93.8l26.9-2.1l-1,30.3c2.4-1.3,4.7-2.4,7-3.4C1342.6-560,1345.5-560.4,1349.1-560.4z M1347-513.5
		c1.9-0.5,3.5-1.3,4.8-2.3s2.4-2.1,3.2-3.3c0.8-1.2,1.3-2.6,1.6-4c0.2-1.4,0.2-2.8-0.2-4.2c-0.4-1.4-1-2.6-2-3.7
		c-0.9-1-2.1-1.9-3.4-2.6c-1.4-0.7-2.9-1-4.5-1.2c-1.7-0.1-3.4,0.1-5.3,0.6s-3.5,1.3-4.8,2.3c-1.4,1-2.4,2.1-3.3,3.4
		c-0.8,1.2-1.3,2.6-1.6,4c-0.2,1.4-0.2,2.8,0.2,4.2c0.4,1.4,1,2.6,2,3.7c0.9,1,2.1,1.9,3.4,2.5c1.4,0.6,2.9,1,4.6,1.1
		C1343.3-512.8,1345.1-513,1347-513.5z"/>
	<path id="XMLID_79_" class="st0" d="M1450.9-498.4c-4.7,3.4-9.6,5.9-14.5,7.4c-5,1.5-10.7,2.3-17.1,2.3c-5.3,0-10.1-0.9-14.5-2.7
		s-8.2-4.3-11.3-7.4c-3.2-3.1-5.7-6.7-7.4-10.9c-1.8-4.1-2.7-8.6-2.7-13.2c0-5.8,0.9-11,2.8-15.6s4.4-8.5,7.6-11.6
		c3.2-3.2,6.9-5.6,11.1-7.3s8.7-2.5,13.6-2.5c7.8,0,14.5,2,20.2,5.9c5.7,4,10,9.2,12.7,15.8l-34.8,26.2c0.9,0.5,2,0.8,3.4,0.9
		c1.4,0.2,2.7,0.2,3.8,0.2c3.6,0,6.6-0.6,9-1.9c2.4-1.3,4.7-2.8,6.7-4.6L1450.9-498.4z M1426-536.6c-1.1-1.3-2.3-2.2-3.5-2.7
		c-1.3-0.5-2.7-0.7-4.4-0.7c-1.6,0-3,0.3-4.2,1c-1.3,0.7-2.4,1.6-3.3,2.7c-0.9,1.1-1.6,2.4-2.2,3.8c-0.5,1.4-0.8,2.8-0.8,4.3
		c0,1.4,0.1,2.4,0.3,3c0.2,0.6,0.4,1.2,0.8,1.8L1426-536.6z"/>
	<path id="XMLID_77_" class="st0" d="M1485.7-488.7c-1.1,0-2.3,0.1-3.7,0.1c-7.4,0-13.2-1.7-17.4-5.1c-4.2-3.4-6.2-8.9-6.2-16.5
		v-27.6l-6.4,0.1l0.7-20.1h5.5v-7.7l25.3-11.4v19.1l9.4-1.4l-1.3,21.4h-7.9v20.4c0,2.3,0.3,3.9,1,4.7s2.2,1.2,4.5,1.2
		c1,0,1.8,0,2.4-0.1s1.2-0.2,1.7-0.3l-4.1,23C1488-488.8,1486.8-488.7,1485.7-488.7z"/>
</g>
<g id="XMLID_517_">
	<g id="XMLID_173_">
		<path id="XMLID_184_" class="st1" d="M-46-850.5c-0.1,5.4-0.4,10.5-0.7,15.3c-16.6-2.7-29.5-6.7-39-10.4
			c10.8-4.2,17.2-8.1,19.6-9.7C-60.7-853.5-54-851.8-46-850.5z"/>
		<path id="XMLID_181_" class="st2" d="M-124.8-835.2c4.2,54.3,23.6,69.1,39,78.2c-5.6,3.3-10.7,5.9-14.3,9.4
			c-16.1-9.5-36.7-25-39.7-85.5C-134.4-833.7-129.5-834.4-124.8-835.2z"/>
		<path id="XMLID_180_" class="st2" d="M-85.7-864.2c0,0,6.2,4.7,19.6,9c-2.3,1.6-8.7,5.5-19.6,9.7c-10.8-4.2-17.2-8.1-19.6-9.7
			C-92-859.6-85.7-864.2-85.7-864.2z"/>
		<path id="XMLID_179_" class="st2" d="M-124.8-835.2c-0.4-4.8-0.6-9.9-0.7-15.3c8-1.3,14.7-3,20.2-4.8c2.3,1.6,8.7,5.5,19.6,9.7
			C-95.3-841.8-108.2-837.9-124.8-835.2z"/>
		<path id="XMLID_178_" class="st1" d="M-31.7-833.1c-5.3-0.6-10.3-1.3-15-2c0.4-4.8,0.6-9.9,0.7-15.3c4.5,0.7,9.3,1.3,14.6,1.7
			C-31.4-843.2-31.5-838-31.7-833.1z"/>
		<path id="XMLID_177_" class="st1" d="M-85.7-757c5.6,3.3,10.7,5.9,14.3,9.4c-5.7,3.3-10.7,5.9-14.3,9.5c-3.5-3.5-8.6-6.1-14.3-9.5
			C-96.5-751.1-91.4-753.7-85.7-757z"/>
		<path id="XMLID_176_" class="st3" d="M-85.7-845.5c9.5,3.7,22.4,7.6,39,10.4c-4.2,54.3-23.6,69.1-39,78.2
			c-15.4-9.1-34.8-23.9-39-78.2C-108.2-837.9-95.3-841.8-85.7-845.5z"/>
		<path id="XMLID_175_" class="st2" d="M-140.1-848.7c5.3-0.4,10.2-1,14.6-1.7c0.1,5.4,0.4,10.5,0.7,15.3c-4.7,0.8-9.7,1.5-15,2
			C-140-838-140.1-843.2-140.1-848.7z"/>
		<path id="XMLID_174_" class="st1" d="M-46.7-835.2c4.7,0.8,9.7,1.5,15,2c-3,60.5-23.7,76-39.7,85.5c-3.6-3.5-8.7-6-14.3-9.4
			C-70.4-766.1-50.9-780.9-46.7-835.2z"/>
	</g>
	<g id="XMLID_172_">
	</g>
</g>
<path id="XMLID_227_" class="st4" d="M263.7-800.7"/>
<path class="st5" d="M479.8-700.3"/>
<g id="XMLID_326_">
	<path id="XMLID_344_" d="M1056.5-735.6L1056.5-735.6c-4.7-1.6-14.4-6.8-14.4-6.8c-7.2,4.8-17.3,9.8-40.3,11.5
		c-2.6,36.6,5,56.1,21.3,70.5c0,0,5.4-1.8,8.8-3.4c3.4-1.6,6.9-3.8,6.9-3.8c-25.9-17.1-21.8-49.4-21.8-49.4s11.4-1.4,22.8-7
		C1047.6-727.8,1056.5-735.6,1056.5-735.6z"/>
	<path id="XMLID_338_" d="M1082.4-731c0,0,2.8,31.1-5.7,48.9c-10.9,24.7-34.8,33.2-34.8,33.2s-5.6-2.3-8.2-3.8s-7.6-5.3-7.6-5.3
		s22.4-6.2,32.8-23.8c10.5-17.6,8-35.3,8-35.3s-8.7-2-11.6-2.7c-3.5-0.9-9.5-3.5-9.5-3.5s2.9-2,6.4-4.4s7.7-6.7,7.7-6.7
		s6.2,1.6,10.3,2.3C1074.6-731.5,1082.4-731,1082.4-731z"/>
</g>
<g id="XMLID_328_">
	<path id="XMLID_336_" class="st0" d="M1056.5-565.3L1056.5-565.3c-4.7-1.6-14.4-6.8-14.4-6.8c-7.2,4.8-17.3,9.8-40.3,11.5
		c-2.6,36.6,5,56.1,21.3,70.5c0,0,5.4-1.8,8.8-3.4c3.4-1.6,6.9-3.8,6.9-3.8c-25.9-17.1-21.8-49.4-21.8-49.4s11.4-1.4,22.8-7
		C1047.6-557.5,1056.5-565.3,1056.5-565.3z"/>
	<path id="XMLID_330_" class="st0" d="M1082.4-560.7c0,0,2.8,31.1-5.7,48.9c-10.9,24.7-34.8,33.2-34.8,33.2s-5.6-2.3-8.2-3.8
		s-7.6-5.3-7.6-5.3s22.4-6.2,32.8-23.8c10.4-17.6,8-35.3,8-35.3s-8.7-2-11.6-2.7c-3.5-0.9-9.5-3.5-9.5-3.5s2.9-2,6.4-4.4
		s7.7-6.7,7.7-6.7s6.2,1.6,10.3,2.3C1074.6-561.3,1082.4-560.7,1082.4-560.7z"/>
</g>
<g id="XMLID_185_">
	<path id="XMLID_49_" class="st6" d="M212.4,419.8c1.1,1.4,2.3,2.2,3.5,2.4c7.3,1.1,14.5,1.4,21.6,0.9s14.3-1.5,21.4-3l-6.8,23.8
		c-9.5,1.6-18.7,2.6-27.4,2.8s-17.6-0.3-26.4-1.5c-7.6-0.9-12.7-4.2-15.5-9.9c-2.8-5.6-2.9-13.3-0.3-23.1c0.1-0.5,0.2-1.1,0.4-1.8
		c0.2-0.7,0.5-1.8,0.9-3.3s1-3.6,1.7-6.2c0.7-2.7,1.8-6.2,3.1-10.8c1.3-4.5,3-10.1,5.1-16.7c2.1-6.7,4.6-14.7,7.5-24.2h28.7
		l-16.2,53.7c-0.4,2.2-0.9,4.4-1.5,6.4c-0.6,2.1-0.9,4.2-1.1,6.4C210.8,417.2,211.3,418.5,212.4,419.8z"/>
	<path id="XMLID_51_" class="st6" d="M288.3,349.5H317l-29,96h-29.1L288.3,349.5z"/>
	<path id="XMLID_53_" class="st6" d="M343.6,420.9c0.9,1.4,2,2.1,3.3,2.3c2.9,0.4,5.9,0.6,8.9,0.5c3-0.1,6-0.1,9-0.1l7.2-21.9h28.7
		l-14,43.8h-5.8c-17.1,2.6-34.3,2.9-51.7,0.9c-4-0.4-7.3-1.8-9.9-4c-2.5-2.2-4.4-4.9-5.7-8.1c-1.3-3.2-2.1-6.6-2.3-10.3
		c-0.3-3.7-0.1-7.2,0.5-10.4c1.5-8.5,3.7-16.8,6.6-24.8c2.8-8,6.2-15.8,10.2-23.4c1.2-2.2,2.7-4.3,4.6-6.3c1.8-2,3.9-3.7,6.2-5.2
		c2.3-1.5,4.8-2.6,7.3-3.5c2.6-0.9,5.2-1.3,7.9-1.3h56.9l-7,23.1h-42.6c-1.3,0-2.5,0.4-3.6,1.1c-1.1,0.7-2,1.7-2.6,2.8
		c-3.6,6.3-6.5,12.9-8.8,19.8c-2.2,6.9-3.7,14-4.5,21.2C342.3,418.2,342.7,419.5,343.6,420.9z"/>
	<path id="XMLID_55_" class="st6" d="M438.3,425.1l-11.6,20.4h-30.3l46.6-77.8c2.7-4.4,5.3-7.8,7.8-10.2s4.9-4.3,7-5.5
		s4-1.9,5.5-2.2c1.5-0.3,2.6-0.4,3.2-0.4h27.8v96.1h-26.7v-20.4H438.3z M468.4,407.7v-36.2l-20.2,36.2H468.4z"/>
	<path id="XMLID_71_" class="st6" d="M590.6,375.1c0,7.6-3.7,15-12.9,19.1c11.6,3.5,15.9,15.9,15.9,22.1c0,22.1-16.6,29.2-37.1,29.2
		c-15.7,0-31.3,0-47,0v-99.2c15.6,0,31.3,0,47,0C576,346.3,590.6,355.1,590.6,375.1z M527.8,386.1h28.6c11.8,0,15.6-5,15.6-10.6
		c0-4.5-3.7-12.2-15.6-12.2h-28.6V386.1z M527.8,428.1h28.6c7.6,0,18.6-2.5,18.6-11.9c0-8.9-10.9-13.6-18.6-13.6h-28.6V428.1z"/>
	<path id="XMLID_75_" class="st6" d="M672.1,445.5h-74.2c0-33,0-66.1,0-99.2h74.2v18.1h-55.7v22.8h53.7v17.4h-53.7V427h55.7V445.5z"
		/>
	<path id="XMLID_117_" class="st6" d="M709.5,363.3h-31.4v-17c28.6,0,52.8,0,81.6,0v17h-31.4v82.2h-18.7L709.5,363.3L709.5,363.3z"
		/>
</g>
<g id="XMLID_41_">
	<g id="XMLID_189_">
		<path id="XMLID_214_" class="st7" d="M74.9,396.9c-1.3-0.9-2.6-1.9-3.9-2.8c-6.9-5.1-12.7-11.7-19.7-16.5
			c1.7,31.9,11.7,51.6,29.2,66.9c0,0,7.2-2.5,11.9-4.6c4.6-2.1,9.4-5.2,9.4-5.2C86,424.3,78.4,409.8,74.9,396.9z"/>
		<path id="XMLID_210_" class="st8" d="M125.7,342.9c-6.3-2-19.5-9.1-19.5-9.1c-9.7,6.5-23.4,13.2-54.5,15.5
			c-0.5,7-0.7,13.5-0.7,19.6c8.2,4.4,14.6,11.5,21.7,17.4c-1.4-10.7-0.5-18.3-0.5-18.3s15.4-2,30.8-9.4c10.7-5,22.7-15.6,22.7-15.6
			V342.9z"/>
		<path id="XMLID_200_" class="st9" d="M140,368c0,0,1.8,12.9-2.9,29.2c7.4-2.8,15.1-5.1,22.8-7.1c2.7-20.5,0.9-40.8,0.9-40.8
			s-10.6-0.7-16.3-1.7c-5.5-0.9-13.9-3.1-13.9-3.1s-5.7,5.9-10.4,9.1c-4.7,3.2-8.6,5.9-8.6,5.9s8.1,3.5,12.8,4.8
			C128.2,365.4,140,368,140,368z"/>
		<path id="XMLID_192_" class="st10" d="M134.5,406c-0.2,0.1-0.4,0.1-0.6,0.2c-1.3,3.1-2.9,6.3-4.8,9.5
			c-14.1,23.8-44.4,32.2-44.4,32.2S91.4,453,95,455c3.6,2.1,11.1,5.1,11.1,5.1s32.2-11.5,47-44.9c2.5-5.2,4.2-11.2,5.5-17.4
			C150.4,400.2,142.4,402.8,134.5,406z"/>
	</g>
	<path id="XMLID_237_" class="st11" d="M129.3,380.7c-0.8,0-1.5,0.7-1.5,1.5c0,0.8,0.7,1.5,1.5,1.5s1.5-0.7,1.5-1.5
		C130.7,381.4,130.1,380.7,129.3,380.7 M105.4,372.4c0,0.8,0.7,1.5,1.5,1.5s1.5-0.7,1.5-1.5c0-0.8-0.7-1.5-1.5-1.5
		C106,370.9,105.4,371.5,105.4,372.4 M86.3,381.9c0-0.8-0.7-1.5-1.5-1.5c-0.8,0-1.5,0.7-1.5,1.5c0,0.8,0.7,1.5,1.5,1.5
		C85.6,383.4,86.3,382.7,86.3,381.9 M128.4,386.8l-8,16.7c-0.5,1.1,0.3,2.3,1.4,2.3c0.6,0,1.1,0.4,1.2,0.9c0.2,0.8-0.4,1.5-1.2,1.5
		h-30c-0.6,0-1.2-0.5-1.3-1.1c-0.1-0.7,0.5-1.3,1.2-1.3h0.4c1.2,0,2-1.2,1.4-2.3l-7.7-16c-0.3-0.6-0.1-1.3,0.4-1.6
		c0.6-0.4,1.4-0.1,1.7,0.5c0,0,0.8,1.5,0.9,1.6c0.9,1.9,2.4,2.4,4.8,1.9c5-1,11.4-6.7,12.1-11.6c0-1.5,2.4-1.4,2.4,0
		c0.6,4.9,7,10.6,12.1,11.6c2.4,0.5,4.1-0.1,4.8-1.9c0-0.1,1.1-2.3,1.1-2.3c0.3-0.6,1-0.9,1.6-0.6
		C128.4,385.5,128.7,386.2,128.4,386.8 M123.1,413.1c0,0.7-0.5,1.2-1.2,1.2H91.7c-0.7,0-1.2-0.5-1.2-1.2c0-0.7,0.5-1.2,1.2-1.2h30.2
		C122.6,411.9,123.1,412.4,123.1,413.1"/>
</g>
<g id="XMLID_230_" class="st12">
	<path id="XMLID_232_" class="st13" d="M105.1,375.3c-2-0.4-4.3-0.2-6.5,0.7c0-1.2,0-2.3,0-3.5H79.7H61c0,1.1,0,2.3,0,3.5
		c-2.2-0.8-4.5-1.1-6.5-0.7c-3,0.7-5,2.7-5.7,5.8c-0.9,4,1.1,8.6,5.6,12.9c3.6,3.4,8.4,6.2,13.4,8c2.1,3,4.8,5.3,8.2,6.8
		c-0.5,1.8-2.2,7.1-6.4,10.3h10.3H90c-4.2-3.2-6-8.5-6.4-10.3c3.4-1.4,6.1-3.8,8.2-6.8c5.1-1.8,9.8-4.6,13.4-8
		c4.5-4.3,6.5-8.9,5.6-12.9C110.1,378,108.1,376,105.1,375.3z M57.3,390.8c-3.3-3.1-4.9-6.4-4.4-8.8c0.3-1.4,1.1-2.2,2.4-2.5
		c1.7-0.4,4,0.2,5.8,1.3c0.4,5,1.4,10.2,3.3,14.9C61.8,394.4,59.3,392.8,57.3,390.8z M102.2,390.8c-2,1.9-4.4,3.6-7.1,5
		c1.9-4.6,2.8-9.9,3.3-14.9c1.9-1.1,4.1-1.7,5.8-1.3c1.3,0.3,2.1,1.1,2.4,2.5C107.1,384.4,105.4,387.7,102.2,390.8z"/>
	<rect id="XMLID_231_" x="66.5" y="421.8" class="st13" width="26.4" height="5.7"/>
</g>
</svg>
